<svg xmlns="http://www.w3.org/2000/svg" width="68" height="68" fill="none"><g clip-path="url(#a)"><path stroke="#000" d="m24.5 22.5-6.5 4v9l1.5 1.5 5-3"/><path fill="#FFD645" stroke="#000" d="m24 22.5.5 11.5-2 1-4.5 2.5-.5-2.5.5-8.5 6-4ZM26 31.5l1.5-19 6-10.5L37 4l7 17.5 5 6V38l-5-3h-5.5L42 45H26l3-10-3-3.5Z"/><path fill="#000" d="M62.023 7.97H40.975c-.065 0-.13.003-.194.009A29.033 29.033 0 0 0 35.409.584a1.992 1.992 0 0 0-2.818 0 29.033 29.033 0 0 0-5.371 7.395 1.977 1.977 0 0 0-.195-.01H5.977A5.983 5.983 0 0 0 0 13.946v35.86a5.983 5.983 0 0 0 5.977 5.976h17.31L20.6 64.016h-2.538a1.992 1.992 0 1 0 0 3.984h31.875a1.992 1.992 0 0 0 0-3.984h-2.54l-2.684-8.234h17.31A5.983 5.983 0 0 0 68 49.805v-35.86a5.983 5.983 0 0 0-5.977-5.976ZM34 4.927a25.08 25.08 0 0 1 3.893 6.235 9.953 9.953 0 0 1-3.893.79 9.95 9.95 0 0 1-3.893-.79A25.084 25.084 0 0 1 34 4.928Zm-5.977 16.987c0-2.194.09-4.247.789-6.976 1.64.657 3.397.999 5.188.999 1.79 0 3.548-.342 5.188-1 .69 2.698.789 4.758.789 6.977v9.96H28.023v-9.96Zm11.182 21.914h-10.41l2.657-7.97h5.096l2.657 7.97ZM3.985 13.946c0-1.099.893-1.992 1.992-1.992h19.575a28.995 28.995 0 0 0-1.49 8.165c-4.552.916-7.992 4.946-7.992 9.764v7.97a1.992 1.992 0 0 0 2.883 1.781l7.549-3.774h.75l-2.657 7.969H3.985V13.946Zm20.054 10.302v8.388l-3.984 1.993v-4.746a5.987 5.987 0 0 1 3.984-5.635Zm.753 39.768 2.685-8.234h13.046l2.685 8.234H24.792Zm39.224-14.21a1.994 1.994 0 0 1-1.993 1.991H5.977a1.994 1.994 0 0 1-1.993-1.992v-1.992h60.032v1.992Zm0-5.977H43.405l-2.657-7.97h.75l7.549 3.775a1.992 1.992 0 0 0 2.883-1.782v-7.969c0-4.818-3.44-8.848-7.992-9.764a28.987 28.987 0 0 0-1.49-8.165h19.575c1.099 0 1.993.893 1.993 1.992v29.883ZM43.96 32.636v-8.388a5.987 5.987 0 0 1 3.984 5.635v4.746l-3.984-1.993Z"/><path fill="#000" d="M34 23.906a1.992 1.992 0 1 0 0-3.984 1.992 1.992 0 0 0 0 3.984Z"/></g><defs><clipPath id="a"><path fill="#fff" d="M0 0h68v68H0z"/></clipPath></defs></svg>