<svg xmlns="http://www.w3.org/2000/svg" width="41" height="41" fill="none"><g fill="#070707" stroke="#070707" stroke-width=".5" clip-path="url(#a)"><path d="M35.028.217H6.668C3.428.217.793 2.845.793 6.077v28.28c0 3.231 2.635 5.86 5.875 5.86h28.36c3.24 0 5.876-2.629 5.876-5.86V6.077c0-3.232-2.636-5.86-5.876-5.86Zm3.526 34.14a3.525 3.525 0 0 1-3.526 3.516H6.668a3.525 3.525 0 0 1-3.525-3.516V6.077A3.525 3.525 0 0 1 6.668 2.56h28.36a3.525 3.525 0 0 1 3.526 3.515v28.281Z"/><path d="M19.673 16.701c0-2.585-2.108-4.687-4.7-4.687H7.922V28.42h7.05c2.593 0 4.701-2.103 4.701-4.688a4.67 4.67 0 0 0-1.596-3.515 4.67 4.67 0 0 0 1.596-3.516Zm-2.35 7.031a2.35 2.35 0 0 1-2.35 2.344h-4.701V21.39h4.7a2.35 2.35 0 0 1 2.35 2.343Zm-7.051-4.687v-4.688h4.7a2.35 2.35 0 0 1 2.35 2.344 2.35 2.35 0 0 1-2.35 2.344h-4.7ZM27.899 16.701c-3.24 0-5.876 2.629-5.876 5.86 0 3.23 2.636 5.859 5.876 5.859a5.9 5.9 0 0 0 5.089-2.929l-2.035-1.174a3.53 3.53 0 0 1-6.378-.585h9.2v-1.171c0-3.231-2.636-5.86-5.876-5.86Zm-3.324 4.688a3.53 3.53 0 0 1 6.648 0h-6.648ZM23.198 12.014H32.6v2.343h-9.4v-2.343Z"/></g><defs><clipPath id="a"><path fill="#fff" d="M.793.217h40.11v40H.794z"/></clipPath></defs></svg>