<svg xmlns="http://www.w3.org/2000/svg" width="42" height="42" fill="none"><path fill="#070707" stroke="#070707" stroke-width=".5" d="M35.283.86h-28.4C3.64.86 1 3.491 1 6.726V35.05c0 3.236 2.64 5.869 5.884 5.869h28.399c3.244 0 5.884-2.633 5.884-5.869V6.727c0-3.235-2.64-5.868-5.884-5.868Zm3.53 34.19a3.53 3.53 0 0 1-3.53 3.521h-28.4a3.53 3.53 0 0 1-3.53-3.52V6.726a3.53 3.53 0 0 1 3.53-3.52h28.4a3.53 3.53 0 0 1 3.53 3.52V35.05Z"/><mask id="a" fill="#fff"><path d="M32.128 29.895h-4.312V22.694c0-.497-.036-.988-.161-1.473-.515-1.998-2.741-1.881-3.627-.934-.445.476-.735 1.014-.748 1.679-.003.158-.012.316-.012.474v7.454h-4.304V16.53h4.302v1.793l.034.015.092-.125c.432-.599.927-1.13 1.585-1.488.736-.402 1.53-.536 2.356-.512.895.026 1.744.227 2.51.709.98.617 1.579 1.52 1.929 2.604.273.844.362 1.716.363 2.598.002 2.538 0 5.077 0 7.616 0 .05-.004.1-.007.156Z"/></mask><path fill="#070707" d="M32.128 29.895h-4.312V22.694c0-.497-.036-.988-.161-1.473-.515-1.998-2.741-1.881-3.627-.934-.445.476-.735 1.014-.748 1.679-.003.158-.012.316-.012.474v7.454h-4.304V16.53h4.302v1.793l.034.015.092-.125c.432-.599.927-1.13 1.585-1.488.736-.402 1.53-.536 2.356-.512.895.026 1.744.227 2.51.709.98.617 1.579 1.52 1.929 2.604.273.844.362 1.716.363 2.598.002 2.538 0 5.077 0 7.616 0 .05-.004.1-.007.156Z"/><path fill="#070707" d="M32.128 29.895v.031h.029l.001-.029-.03-.002Zm-4.312 0h-.03v.031h.03v-.03Zm0-7.201h.031-.03Zm-.161-1.473.03-.007-.03.008Zm-3.627-.934.023.02-.023-.02Zm-.748 1.679h-.03.03Zm-.012.474h.03-.03Zm0 7.454v.03h.03v-.03h-.03Zm-4.304 0h-.03v.03h.03v-.03Zm0-13.365v-.03h-.03v.03h.03Zm4.302 0h.03v-.03h-.03v.03Zm0 1.793h-.031v.02l.018.008.012-.028Zm.034.015-.012.028.022.01.015-.02-.025-.018Zm.092-.125.025.018-.025-.018Zm1.585-1.488.015.026-.015-.026Zm2.356-.512.001-.03v.03Zm2.51.709.016-.026-.016.026Zm1.929 2.604-.03.01.03-.01Zm.363 2.598h.03-.03Zm0 7.616h-.03.03Zm-.007.126H27.816v.061H32.128v-.061Zm-4.281.03V29.696h-.061V29.896h.061Zm0-.198v-7.003h-.06c-.002 2.334-.001 4.668-.001 7.003h.061Zm0-7.003c0-.499-.037-.992-.162-1.48l-.06.015c.124.481.161.97.161 1.465h.061Zm-.162-1.48c-.261-1.012-.957-1.49-1.7-1.595-.74-.103-1.529.165-1.98.647l.046.042c.435-.466 1.203-.73 1.925-.628.72.1 1.395.563 1.65 1.55l.059-.016Zm-3.68-.948c-.448.48-.743 1.025-.755 1.7h.06c.013-.655.3-1.186.74-1.658l-.044-.042Zm-.755 1.7c-.003.155-.012.317-.012.474h.06c0-.158.01-.313.013-.474h-.061Zm-.012.474-.001 7.249h.061V22.44h-.06Zm-.001 7.249V29.895h.061V29.688h-.061Zm.03.175H18.965v.06H23.268v-.06Zm-4.273.03V16.53h-.06V29.894h.06Zm-.03-13.334H23.265v-.061H18.965v.06Zm4.27-.03V18.321h.062V16.53h-.061Zm.02 1.82.034.015.024-.056-.034-.015-.025.056Zm.07.005c.03-.04.063-.083.093-.125l-.05-.036-.092.125.05.036Zm.093-.125c.43-.597.922-1.124 1.575-1.48l-.03-.053c-.663.362-1.162.897-1.594 1.497l.05.036Zm1.575-1.48c.73-.398 1.518-.532 2.34-.508l.002-.06c-.83-.025-1.63.11-2.371.515l.029.053Zm2.34-.508c.891.026 1.735.227 2.494.704l.033-.051c-.771-.485-1.626-.688-2.525-.714l-.002.061Zm2.494.704c.974.613 1.568 1.51 1.916 2.588l.059-.018c-.352-1.09-.954-2-1.942-2.621l-.033.052Zm1.916 2.588c.272.84.361 1.709.362 2.589h.062c-.001-.885-.091-1.76-.365-2.608l-.058.02Zm.362 2.589c.002 2.538.001 5.077 0 7.616h.062c0-2.539.002-5.078 0-7.616h-.062Zm0 7.616c0 .049-.004.096-.007.155l.061.003c.003-.056.008-.107.008-.158h-.061Z" mask="url(#a)"/><path fill="#070707" stroke="#070707" stroke-width=".031" d="M16.319 29.887H12.069V16.542H16.319V29.887ZM14.377 9.888c.67 0 1.242.237 1.646.644.404.406.643.982.645 1.659.002.67-.238 1.24-.648 1.643-.41.404-.991.641-1.675.641-1.332.001-2.281-.95-2.284-2.29-.002-1.34.96-2.295 2.316-2.297Z"/></svg>