<svg xmlns="http://www.w3.org/2000/svg" width="68" height="68" fill="none"><g clip-path="url(#a)"><path fill="#FFD645" d="M46 27h12v30H46zM11 43h27v14H11zM11 27h27v6H11z"/><path fill="#000" d="M62.023 0H5.977A5.983 5.983 0 0 0 0 5.977v56.046A5.983 5.983 0 0 0 5.977 68h56.046A5.983 5.983 0 0 0 68 62.023V5.977A5.983 5.983 0 0 0 62.023 0ZM3.984 5.977c0-1.099.894-1.993 1.993-1.993h9.96v11.954H3.985V5.976Zm60.032 56.046a1.994 1.994 0 0 1-1.993 1.993H5.977a1.994 1.994 0 0 1-1.993-1.993V19.922h60.032v42.101Zm0-46.086H19.922V3.985h42.101c1.099 0 1.993.894 1.993 1.993v9.96Z"/><path fill="#000" d="M58.04 7.969h-3.985a1.992 1.992 0 0 0 0 3.984h3.984a1.992 1.992 0 0 0 0-3.984ZM45.953 7.969H41.97a1.992 1.992 0 1 0 0 3.984h3.984a1.992 1.992 0 0 0 0-3.984ZM34 7.969h-3.984a1.992 1.992 0 0 0 0 3.984H34a1.992 1.992 0 0 0 0-3.984ZM37.984 24.04H9.961c-1.1 0-1.992.891-1.992 1.991V34c0 1.1.892 1.992 1.992 1.992h28.023c1.1 0 1.993-.892 1.993-1.992v-7.969c0-1.1-.892-1.992-1.993-1.992Zm-1.992 7.968H11.953v-3.985h24.04v3.985ZM58.04 24.04H45.952c-1.1 0-1.992.891-1.992 1.991V58.04c0 1.1.892 1.992 1.992 1.992H58.04c1.1 0 1.992-.892 1.992-1.992V26.031c0-1.1-.892-1.992-1.992-1.992Zm-1.993 32.007h-8.102V28.023h8.102v28.024ZM37.984 39.977H9.961c-1.1 0-1.992.892-1.992 1.992v16.07c0 1.1.892 1.992 1.992 1.992h28.023c1.1 0 1.993-.892 1.993-1.992V41.97c0-1.1-.892-1.992-1.993-1.992Zm-1.992 16.07H11.953V43.96h24.04v12.086Z"/></g><defs><clipPath id="a"><path fill="#fff" d="M0 0h68v68H0z"/></clipPath></defs></svg>